<?xml version="1.0" encoding="utf-8"?>
<!-- Generator: Adobe Illustrator 18.0.0, SVG Export Plug-In . SVG Version: 6.00 Build 0)  -->
<!DOCTYPE svg PUBLIC "-//W3C//DTD SVG 1.1//EN" "http://www.w3.org/Graphics/SVG/1.1/DTD/svg11.dtd">
<svg version="1.1" id="Layer_1" xmlns="http://www.w3.org/2000/svg" xmlns:xlink="http://www.w3.org/1999/xlink" x="0px" y="0px"
	 viewBox="0 0 x y" enable-background="new 0 0 x y" xml:space="preserve">
<g>
	<g>
		<path stroke="#000000" stroke-miterlimit="10" d="M45.2,37.5c0,0,8.6-6.8,6.8-19C50.3,6.4,40.8,3,30.6,3S3,3,3,3v68.9h31.8
			c0,0,18.1,0,18-19.3C52.8,52.6,53.4,42,45.2,37.5z M24.5,16.6c0,0,7.2-1.1,7.2,6.7c0.1,7.8-7.2,6.7-7.2,6.7V16.6z M24.5,57.1v-15
			c0,0,7.2-0.3,7.3,7.5C31.8,57.4,24.5,57.1,24.5,57.1z"/>
		<path stroke="#000000" stroke-miterlimit="10" d="M76.6,4.3c-13.1,0-17.9,5.6-17.9,5.6v13.6c0,0,6.1-4.3,12-2.8
			c5.9,1.5,5.1,7.5,5.1,7.5s-7.4-4.7-14.3,1.7c-7.6,7.1-2.8,18-0.3,20.5c3,3.1,9.7,3.9,14.6-1.7v3.7h16.7V24.5
			C92.6,20.9,93,4.3,76.6,4.3z M75.6,41.2c0,0-1.5,2.6-4.1,1.8c-2.6-0.8-3.2-4.4-2-6.5c1.2-2.1,4.1-2.9,6.1-0.9V41.2z"/>
		<path stroke="#000000" stroke-miterlimit="10" d="M161.8,4.3c-13.1,0-17.9,5.6-17.9,5.6v13.6c0,0,6.1-4.3,12-2.8s5.1,7.5,5.1,7.5
			s-7.4-4.7-14.3,1.7c-7.6,7.1-2.8,18-0.3,20.5c3,3.1,9.7,3.9,14.6-1.7v3.7h16.7V24.5C177.8,20.9,178.2,4.3,161.8,4.3z M160.9,41.2
			c0,0-1.5,2.6-4.1,1.8s-3.2-4.4-2-6.5c1.2-2.1,4.1-2.9,6.1-0.9V41.2z"/>
		<path stroke="#000000" stroke-miterlimit="10" d="M247.1,4.3c-13.1,0-17.9,5.6-17.9,5.6v13.6c0,0,6.1-4.3,12-2.8s5.1,7.5,5.1,7.5
			s-7.4-4.7-14.3,1.7c-7.6,7.1-2.8,18-0.3,20.5c3,3.1,9.7,3.9,14.6-1.7v3.7h16.7V24.5C263.1,20.9,263.5,4.3,247.1,4.3z M246.2,41.2
			c0,0-1.5,2.6-4.1,1.8s-3.2-4.4-2-6.5c1.2-2.1,4.1-2.9,6.1-0.9V41.2z"/>
		<path stroke="#000000" stroke-miterlimit="10" d="M83.3,4.3L83.3,4.3c0.1,0,0.2,0,0.3,0H83.3z"/>
		<path stroke="#000000" stroke-miterlimit="10" d="M116.7,9.4C116.7,9.4,116.7,9.3,116.7,9.4c0-0.1,0-0.1,0-0.2V9.4z"/>
		<path stroke="#000000" stroke-miterlimit="10" d="M136.3,9.1c0-0.1-0.1-0.1-0.1-0.2v0.4C136.1,9.4,136.2,9.3,136.3,9.1z"/>
		<path stroke="#000000" stroke-miterlimit="10" d="M139.1,18.5c-0.2-2.5-0.8-6.3-2.8-9.4c-0.1,0.1-0.1,0.2-0.1,0.2V9
			c-1.7-2.5-4.3-4.5-8.4-4.6c-7.8-0.3-10.6,4.3-11,5c0,0,0,0.1,0,0.1V9.2c-1-2.2-2.4-3.8-4.3-4.9H93c4.8,2.8,6.6,9.1,6.6,20.2v27.9
			h17.1v-29c0,0-0.6-3.8,2.1-4.7c0.3-0.1,0.7-0.2,1.1-0.2c4,0,3.2,3.7,3.2,4.5s0,29.4,0,29.4h12.9h3V21
			C139.2,21,139.2,20,139.1,18.5z"/>
		<path stroke="#000000" stroke-miterlimit="10" d="M224.4,18.5c-0.2-2.5-0.8-6.3-2.8-9.4c-0.1,0.1-0.1,0.2-0.1,0.2V9
			c-1.7-2.5-4.3-4.5-8.4-4.6c-7.8-0.3-10.6,4.3-11,5c0,0,0,0.1,0,0.1V9.2c-1-2.2-2.4-3.8-4.3-4.9h-19.4c4.8,2.8,6.6,9.1,6.6,20.2
			v27.9H202v-29c0,0-0.6-3.8,2.1-4.7c0.3-0.1,0.7-0.2,1.1-0.2c4,0,3.2,3.7,3.2,4.5s0,29.4,0,29.4h12.9h3V21
			C224.5,21,224.5,20,224.4,18.5z"/>
		<path stroke="#000000" stroke-miterlimit="10" d="M296.6,28.4c0,0,5.8-2.9,5.7-13c-0.1-9-9.6-11-14.5-11c-3,0-20,0-20,0v48.1h23.6
			c0,0,12.2-0.3,12-14.1C303.4,38.3,303.6,30.2,296.6,28.4z M283.2,42.2V31.8c0,0,5.1-0.3,5.1,5.2S283.2,42.2,283.2,42.2z M283.2,23
			v-9.4c0,0,5.1-0.7,5.1,4.7S283.2,23,283.2,23z"/>
		<path stroke="#000000" stroke-miterlimit="10" d="M335.6,7.5c-10.3-9.3-25.8-1.8-28.3,15c-2.3,15.7,4.1,31.1,17.6,31.1
			c11.8,0,15.9-8.7,15.9-8.7l0.8-8.7c0,0-1.8,4-9,3.4c-6.5-0.6-7.4-7.6-7.4-7.6h16.9C342.2,32,345.9,16.8,335.6,7.5z M332.3,23.6
			h-7.9c0-0.9,0.1-8.1,4.3-8.1C332.9,15.5,332.3,23.6,332.3,23.6z"/>
		<path stroke="#000000" stroke-miterlimit="10" d="M369.5,72.2h1.3C370.3,72.1,369.8,72.1,369.5,72.2z"/>
		<path stroke="#000000" stroke-miterlimit="10" d="M369.1,54.8v-51H348v51.6v0v16.7h21.5c0.3,0,0.8,0,1.3,0h8.9c4,0,8.8-3.9,8.8-8
			v-9.3L369.1,54.8z"/>
	</g>
	<g>
		<g>
			<path fill="#F8FCFF" stroke="#F4F4F4" stroke-miterlimit="10" d="M43.2,35.5c0,0,8.6-6.8,6.8-19C48.3,4.4,38.8,1,28.6,1
				C18.3,1,1,1,1,1v68.9h31.8c0,0,18.1,0,18-19.3C50.8,50.6,51.4,40,43.2,35.5z M22.5,14.6c0,0,7.2-1.1,7.2,6.7
				c0.1,7.8-7.2,6.7-7.2,6.7V14.6z M22.5,55.1v-15c0,0,7.2-0.3,7.3,7.5C29.8,55.4,22.5,55.1,22.5,55.1z"/>
			<path fill="#F8FCFF" stroke="#F4F4F4" stroke-miterlimit="10" d="M74.6,2.3c-13.1,0-17.9,5.6-17.9,5.6v13.6c0,0,6.1-4.3,12-2.8
				c5.9,1.5,5.1,7.5,5.1,7.5s-7.4-4.7-14.3,1.7c-7.6,7.1-2.8,18-0.3,20.5c3,3.1,9.7,3.9,14.6-1.7v3.7h16.7V22.5
				C90.6,18.9,91,2.3,74.6,2.3z M73.6,39.2c0,0-1.5,2.6-4.1,1.8c-2.6-0.8-3.2-4.4-2-6.5c1.2-2.1,4.1-2.9,6.1-0.9V39.2z"/>
			<path fill="#F8FCFF" stroke="#F4F4F4" stroke-miterlimit="10" d="M159.8,2.3c-13.1,0-17.9,5.6-17.9,5.6v13.6c0,0,6.1-4.3,12-2.8
				s5.1,7.5,5.1,7.5s-7.4-4.7-14.3,1.7c-7.6,7.1-2.8,18-0.3,20.5c3,3.1,9.7,3.9,14.6-1.7v3.7h16.7V22.5
				C175.8,18.9,176.2,2.3,159.8,2.3z M158.9,39.2c0,0-1.5,2.6-4.1,1.8s-3.2-4.4-2-6.5c1.2-2.1,4.1-2.9,6.1-0.9V39.2z"/>
			<path fill="#F8FCFF" stroke="#F4F4F4" stroke-miterlimit="10" d="M245.1,2.3c-13.1,0-17.9,5.6-17.9,5.6v13.6c0,0,6.1-4.3,12-2.8
				s5.1,7.5,5.1,7.5s-7.4-4.7-14.3,1.7c-7.6,7.1-2.8,18-0.3,20.5c3,3.1,9.7,3.9,14.6-1.7v3.7h16.7V22.5
				C261.1,18.9,261.5,2.3,245.1,2.3z M244.2,39.2c0,0-1.5,2.6-4.1,1.8s-3.2-4.4-2-6.5c1.2-2.1,4.1-2.9,6.1-0.9V39.2z"/>
			<g>
				<path fill="#F8FCFF" stroke="#F4F4F4" stroke-miterlimit="10" d="M81.3,2.3L81.3,2.3c0.1,0,0.2,0,0.3,0H81.3z"/>
				<g>
					<path fill="#F8FCFF" stroke="#F4F4F4" stroke-miterlimit="10" d="M114.7,7.4C114.7,7.4,114.7,7.3,114.7,7.4c0-0.1,0-0.1,0-0.2
						V7.4z"/>
					<path fill="#F8FCFF" stroke="#F4F4F4" stroke-miterlimit="10" d="M134.3,7.1c0-0.1-0.1-0.1-0.1-0.2v0.4
						C134.1,7.4,134.2,7.3,134.3,7.1z"/>
					<path fill="#F8FCFF" stroke="#F4F4F4" stroke-miterlimit="10" d="M137.1,16.5c-0.2-2.5-0.8-6.3-2.8-9.4
						c-0.1,0.1-0.1,0.2-0.1,0.2V7c-1.7-2.5-4.3-4.5-8.4-4.6c-7.8-0.3-10.6,4.3-11,5c0,0,0,0.1,0,0.1V7.2c-1-2.2-2.4-3.8-4.3-4.9H91
						c4.8,2.8,6.6,9.1,6.6,20.2v27.9h17.1v-29c0,0-0.6-3.8,2.1-4.7c0.3-0.1,0.7-0.2,1.1-0.2c4,0,3.2,3.7,3.2,4.5s0,29.4,0,29.4h12.9
						h3V19C137.2,19,137.2,18,137.1,16.5z"/>
					<path fill="#F8FCFF" stroke="#F4F4F4" stroke-miterlimit="10" d="M222.4,16.5c-0.2-2.5-0.8-6.3-2.8-9.4
						c-0.1,0.1-0.1,0.2-0.1,0.2V7c-1.7-2.5-4.3-4.5-8.4-4.6c-7.8-0.3-10.6,4.3-11,5c0,0,0,0.1,0,0.1V7.2c-1-2.2-2.4-3.8-4.3-4.9
						h-19.4c4.8,2.8,6.6,9.1,6.6,20.2v27.9H200v-29c0,0-0.6-3.8,2.1-4.7c0.3-0.1,0.7-0.2,1.1-0.2c4,0,3.2,3.7,3.2,4.5s0,29.4,0,29.4
						h12.9h3V19C222.5,19,222.5,18,222.4,16.5z"/>
				</g>
			</g>
			<path fill="#F8FCFF" stroke="#F4F4F4" stroke-miterlimit="10" d="M294.6,26.4c0,0,5.8-2.9,5.7-13c-0.1-9-9.6-11-14.5-11
				c-3,0-20,0-20,0v48.1h23.6c0,0,12.2-0.3,12-14.1C301.4,36.3,301.6,28.2,294.6,26.4z M281.2,40.2V29.8c0,0,5.1-0.3,5.1,5.2
				S281.2,40.2,281.2,40.2z M281.2,21v-9.4c0,0,5.1-0.7,5.1,4.7S281.2,21,281.2,21z"/>
			<path fill="#F8FCFF" stroke="#F4F4F4" stroke-miterlimit="10" d="M333.6,5.5c-10.3-9.3-25.8-1.8-28.3,15
				c-2.3,15.7,4.1,31.1,17.6,31.1c11.8,0,15.9-8.7,15.9-8.7l0.8-8.7c0,0-1.8,4-9,3.4c-6.5-0.6-7.4-7.6-7.4-7.6h16.9
				C340.2,30,343.9,14.8,333.6,5.5z M330.3,21.6h-7.9c0-0.9,0.1-8.1,4.3-8.1C330.9,13.5,330.3,21.6,330.3,21.6z"/>
			<g>
				<path fill="#F8FCFF" stroke="#F4F4F4" stroke-miterlimit="10" d="M367.5,70.2h1.3C368.3,70.1,367.8,70.1,367.5,70.2z"/>
				<path fill="#F8FCFF" stroke="#F4F4F4" stroke-miterlimit="10" d="M367.1,52.8v-51H346v51.6v0v16.7h21.5c0.3,0,0.8,0,1.3,0h8.9
					c4,0,8.8-3.9,8.8-8v-9.3L367.1,52.8z"/>
			</g>
		</g>
	</g>
</g>
<g>
	<g>
		<g>
			<g>
				<path fill="#1D2021" stroke="#1C1F20" stroke-miterlimit="10" d="M332.8,68.7c0.1,0,0.2-0.1,0.2-0.2l0,0c0-0.1-0.1-0.2-0.2-0.2
					h-4.2c-0.1,0-0.2,0.1-0.2,0.2l0,0c0,0.1,0.1,0.2,0.2,0.2H332.8z"/>
				<path fill="#1D2021" stroke="#1C1F20" stroke-miterlimit="10" d="M332.8,69h-4.2c-0.3,0-0.6-0.3-0.6-0.6c0-0.3,0.3-0.6,0.6-0.6
					h4.2c0.3,0,0.6,0.3,0.6,0.6C333.4,68.8,333.1,69,332.8,69z"/>
			</g>
			<g>
				<path fill="#1D2021" stroke="#1C1F20" stroke-miterlimit="10" d="M331.8,74.9c0.1,0,0.2,0,0.3-0.1l0,0c0-0.1,0-0.2-0.1-0.3
					l-3.9-1.8c-0.1,0-0.2,0-0.3,0.1l0,0c0,0.1,0,0.2,0.1,0.3L331.8,74.9z"/>
				<path fill="#1D2021" stroke="#1C1F20" stroke-miterlimit="10" d="M331.9,75.3L331.9,75.3l-0.2,0l-3.9-1.8
					c-0.3-0.1-0.4-0.5-0.3-0.8c0.1-0.2,0.3-0.4,0.6-0.4l0.2,0l3.9,1.8c0.3,0.1,0.4,0.5,0.3,0.8C332.4,75.1,332.2,75.3,331.9,75.3z"
					/>
			</g>
			<g>
				<path fill="#1D2021" stroke="#1C1F20" stroke-miterlimit="10" d="M329,79.5c0.1,0.1,0.2,0.1,0.3,0l0,0c0.1-0.1,0.1-0.2,0-0.3
					l-2.5-2.1c-0.1-0.1-0.2-0.1-0.3,0l0,0c-0.1,0.1-0.1,0.2,0,0.3L329,79.5z"/>
				<path fill="#1D2021" stroke="#1C1F20" stroke-miterlimit="10" d="M329.1,79.9L329.1,79.9c-0.1,0-0.3-0.1-0.4-0.1l-2.5-2.1
					c-0.1-0.1-0.2-0.3-0.2-0.4c0-0.2,0-0.3,0.1-0.4c0.2-0.2,0.6-0.3,0.8-0.1l2.5,2.1c0.1,0.1,0.2,0.3,0.2,0.4c0,0.2,0,0.3-0.1,0.4
					C329.4,79.8,329.3,79.9,329.1,79.9z"/>
			</g>
			<g>
				<path fill="#1D2021" stroke="#1C1F20" stroke-miterlimit="10" d="M331.8,61.8c0.1,0,0.2,0,0.3,0.1l0,0c0,0.1,0,0.2-0.1,0.3
					l-3.9,1.8c-0.1,0-0.2,0-0.3-0.1l0,0c0-0.1,0-0.2,0.1-0.3L331.8,61.8z"/>
				<path fill="#1D2021" stroke="#1C1F20" stroke-miterlimit="10" d="M328,64.4c-0.2,0-0.5-0.1-0.6-0.4c-0.1-0.3,0-0.7,0.3-0.8
					l4-1.8l0.2,0c0.2,0,0.5,0.1,0.6,0.4c0.1,0.3,0,0.7-0.3,0.8l-4,1.8L328,64.4z"/>
			</g>
			<g>
				<path fill="#1D2021" stroke="#1C1F20" stroke-miterlimit="10" d="M329,57.2c0.1-0.1,0.2-0.1,0.3,0l0,0c0.1,0.1,0.1,0.2,0,0.3
					l-2.5,2.1c-0.1,0.1-0.2,0.1-0.3,0l0,0c-0.1-0.1-0.1-0.2,0-0.3L329,57.2z"/>
				<path fill="#1D2021" stroke="#1C1F20" stroke-miterlimit="10" d="M326.6,60c-0.2,0-0.3-0.1-0.5-0.2c-0.1-0.1-0.2-0.3-0.1-0.4
					c0-0.2,0.1-0.3,0.2-0.4l2.5-2.1c0.2-0.2,0.6-0.2,0.8,0.1c0.1,0.1,0.2,0.3,0.1,0.4c0,0.2-0.1,0.3-0.2,0.4l-2.5,2.1
					C326.9,60,326.7,60,326.6,60z"/>
			</g>
		</g>
		<g>
			<g>
				<path fill="#1D2021" stroke="#1C1F20" stroke-miterlimit="10" d="M62.4,68.7c-0.1,0-0.2-0.1-0.2-0.2l0,0c0-0.1,0.1-0.2,0.2-0.2
					h4.2c0.1,0,0.2,0.1,0.2,0.2l0,0c0,0.1-0.1,0.2-0.2,0.2H62.4z"/>
				<path fill="#1D2021" stroke="#1C1F20" stroke-miterlimit="10" d="M66.6,69h-4.2c-0.3,0-0.6-0.3-0.6-0.6c0-0.3,0.3-0.6,0.6-0.6
					h4.2c0.3,0,0.6,0.3,0.6,0.6C67.2,68.8,66.9,69,66.6,69z"/>
			</g>
			<g>
				<path fill="#1D2021" stroke="#1C1F20" stroke-miterlimit="10" d="M63.4,74.9c-0.1,0-0.2,0-0.3-0.1l0,0c0-0.1,0-0.2,0.1-0.3
					l3.9-1.8c0.1,0,0.2,0,0.3,0.1l0,0c0,0.1,0,0.2-0.1,0.3L63.4,74.9z"/>
				<path fill="#1D2021" stroke="#1C1F20" stroke-miterlimit="10" d="M63.3,75.3c-0.2,0-0.5-0.1-0.6-0.4c-0.1-0.3,0-0.7,0.3-0.8
					l4-1.8l0.2,0c0.2,0,0.5,0.1,0.6,0.4c0.1,0.3,0,0.7-0.3,0.8l-4,1.8L63.3,75.3z"/>
			</g>
			<g>
				<path fill="#1D2021" stroke="#1C1F20" stroke-miterlimit="10" d="M66.3,79.5c-0.1,0.1-0.2,0.1-0.3,0l0,0c-0.1-0.1-0.1-0.2,0-0.3
					l2.5-2.1c0.1-0.1,0.2-0.1,0.3,0l0,0c0.1,0.1,0.1,0.2,0,0.3L66.3,79.5z"/>
				<path fill="#1D2021" stroke="#1C1F20" stroke-miterlimit="10" d="M66.1,79.9c-0.2,0-0.3-0.1-0.5-0.2c-0.1-0.1-0.2-0.3-0.1-0.4
					c0-0.2,0.1-0.3,0.2-0.4l2.5-2.1c0.2-0.2,0.6-0.2,0.8,0.1c0.2,0.2,0.2,0.6-0.1,0.8l-2.5,2.1C66.4,79.9,66.3,79.9,66.1,79.9z"/>
			</g>
			<g>
				<path fill="#1D2021" stroke="#1C1F20" stroke-miterlimit="10" d="M63.4,61.8c-0.1,0-0.2,0-0.3,0.1l0,0c0,0.1,0,0.2,0.1,0.3
					l3.9,1.8c0.1,0,0.2,0,0.3-0.1l0,0c0-0.1,0-0.2-0.1-0.3L63.4,61.8z"/>
				<path fill="#1D2021" stroke="#1C1F20" stroke-miterlimit="10" d="M67.2,64.4L67.2,64.4l-0.2,0l-3.9-1.8
					c-0.3-0.1-0.4-0.5-0.3-0.8c0.1-0.2,0.3-0.4,0.6-0.4l0.2,0l3.9,1.8c0.3,0.1,0.4,0.5,0.3,0.8C67.7,64.3,67.5,64.4,67.2,64.4z"/>
			</g>
			<g>
				<path fill="#1D2021" stroke="#1C1F20" stroke-miterlimit="10" d="M66.3,57.2c-0.1-0.1-0.2-0.1-0.3,0l0,0c-0.1,0.1-0.1,0.2,0,0.3
					l2.5,2.1c0.1,0.1,0.2,0.1,0.3,0l0,0c0.1-0.1,0.1-0.2,0-0.3L66.3,57.2z"/>
				<path fill="#1D2021" stroke="#1C1F20" stroke-miterlimit="10" d="M68.6,60c-0.1,0-0.3-0.1-0.4-0.1l-2.5-2.1
					c-0.1-0.1-0.2-0.3-0.2-0.4c0-0.2,0-0.3,0.1-0.4c0.2-0.2,0.6-0.3,0.8-0.1L69,59c0.3,0.2,0.3,0.6,0.1,0.8C69,60,68.8,60,68.6,60z"
					/>
			</g>
		</g>
	</g>
</g>
<g>
	<g>
		<g>
			<g>
				<path fill="#F8FCFF" stroke="#F4F4F4" stroke-miterlimit="10" d="M331.6,68.3c0.1,0,0.2-0.1,0.2-0.2l0,0c0-0.1-0.1-0.2-0.2-0.2
					h-4.2c-0.1,0-0.2,0.1-0.2,0.2l0,0c0,0.1,0.1,0.2,0.2,0.2H331.6z"/>
				<path fill="#F8FCFF" stroke="#F4F4F4" stroke-miterlimit="10" d="M331.6,68.7h-4.2c-0.3,0-0.6-0.3-0.6-0.6
					c0-0.3,0.3-0.6,0.6-0.6h4.2c0.3,0,0.6,0.3,0.6,0.6C332.2,68.4,331.9,68.7,331.6,68.7z"/>
			</g>
			<g>
				<path fill="#F8FCFF" stroke="#F4F4F4" stroke-miterlimit="10" d="M330.6,74.5c0.1,0,0.2,0,0.3-0.1l0,0c0-0.1,0-0.2-0.1-0.3
					l-3.9-1.8c-0.1,0-0.2,0-0.3,0.1l0,0c0,0.1,0,0.2,0.1,0.3L330.6,74.5z"/>
				<path fill="#F8FCFF" stroke="#F4F4F4" stroke-miterlimit="10" d="M330.7,74.9L330.7,74.9l-0.2,0l-3.9-1.8
					c-0.3-0.1-0.4-0.5-0.3-0.8c0.1-0.2,0.3-0.4,0.6-0.4l0.2,0l3.9,1.8c0.3,0.1,0.4,0.5,0.3,0.8C331.2,74.7,331,74.9,330.7,74.9z"/>
			</g>
			<g>
				<path fill="#F8FCFF" stroke="#F4F4F4" stroke-miterlimit="10" d="M327.8,79.1c0.1,0.1,0.2,0.1,0.3,0l0,0c0.1-0.1,0.1-0.2,0-0.3
					l-2.5-2.1c-0.1-0.1-0.2-0.1-0.3,0l0,0c-0.1,0.1-0.1,0.2,0,0.3L327.8,79.1z"/>
				<path fill="#F8FCFF" stroke="#F4F4F4" stroke-miterlimit="10" d="M327.9,79.5L327.9,79.5c-0.1,0-0.3-0.1-0.4-0.1l-2.5-2.1
					c-0.1-0.1-0.2-0.3-0.2-0.4c0-0.2,0-0.3,0.1-0.4c0.2-0.2,0.6-0.3,0.8-0.1l2.5,2.1c0.1,0.1,0.2,0.3,0.2,0.4c0,0.2,0,0.3-0.1,0.4
					C328.2,79.5,328.1,79.5,327.9,79.5z"/>
			</g>
			<g>
				<path fill="#F8FCFF" stroke="#F4F4F4" stroke-miterlimit="10" d="M330.6,61.4c0.1,0,0.2,0,0.3,0.1l0,0c0,0.1,0,0.2-0.1,0.3
					l-3.9,1.8c-0.1,0-0.2,0-0.3-0.1l0,0c0-0.1,0-0.2,0.1-0.3L330.6,61.4z"/>
				<path fill="#F8FCFF" stroke="#F4F4F4" stroke-miterlimit="10" d="M326.8,64.1c-0.2,0-0.5-0.1-0.6-0.4c-0.1-0.3,0-0.7,0.3-0.8
					l4-1.8l0.2,0c0.2,0,0.5,0.1,0.6,0.4c0.1,0.3,0,0.7-0.3,0.8l-4,1.8L326.8,64.1z"/>
			</g>
			<g>
				<path fill="#F8FCFF" stroke="#F4F4F4" stroke-miterlimit="10" d="M327.8,56.8c0.1-0.1,0.2-0.1,0.3,0l0,0c0.1,0.1,0.1,0.2,0,0.3
					l-2.5,2.1c-0.1,0.1-0.2,0.1-0.3,0l0,0c-0.1-0.1-0.1-0.2,0-0.3L327.8,56.8z"/>
				<path fill="#F8FCFF" stroke="#F4F4F4" stroke-miterlimit="10" d="M325.4,59.7c-0.2,0-0.3-0.1-0.5-0.2c-0.1-0.1-0.2-0.3-0.1-0.4
					c0-0.2,0.1-0.3,0.2-0.4l2.5-2.1c0.2-0.2,0.6-0.2,0.8,0.1c0.1,0.1,0.2,0.3,0.1,0.4c0,0.2-0.1,0.3-0.2,0.4l-2.5,2.1
					C325.7,59.6,325.5,59.7,325.4,59.7z"/>
			</g>
		</g>
		<g>
			<g>
				<path fill="#F8FCFF" stroke="#F4F4F4" stroke-miterlimit="10" d="M61.2,68.3c-0.1,0-0.2-0.1-0.2-0.2l0,0c0-0.1,0.1-0.2,0.2-0.2
					h4.2c0.1,0,0.2,0.1,0.2,0.2l0,0c0,0.1-0.1,0.2-0.2,0.2H61.2z"/>
				<path fill="#F8FCFF" stroke="#F4F4F4" stroke-miterlimit="10" d="M65.4,68.7h-4.2c-0.3,0-0.6-0.3-0.6-0.6c0-0.3,0.3-0.6,0.6-0.6
					h4.2c0.3,0,0.6,0.3,0.6,0.6C66,68.4,65.7,68.7,65.4,68.7z"/>
			</g>
			<g>
				<path fill="#F8FCFF" stroke="#F4F4F4" stroke-miterlimit="10" d="M62.2,74.5c-0.1,0-0.2,0-0.3-0.1l0,0c0-0.1,0-0.2,0.1-0.3
					l3.9-1.8c0.1,0,0.2,0,0.3,0.1l0,0c0,0.1,0,0.2-0.1,0.3L62.2,74.5z"/>
				<path fill="#F8FCFF" stroke="#F4F4F4" stroke-miterlimit="10" d="M62.1,74.9c-0.2,0-0.5-0.1-0.6-0.4c-0.1-0.3,0-0.7,0.3-0.8
					l4-1.8l0.2,0c0.2,0,0.5,0.1,0.6,0.4c0.1,0.3,0,0.7-0.3,0.8l-4,1.8L62.1,74.9z"/>
			</g>
			<g>
				<path fill="#F8FCFF" stroke="#F4F4F4" stroke-miterlimit="10" d="M65.1,79.1c-0.1,0.1-0.2,0.1-0.3,0l0,0c-0.1-0.1-0.1-0.2,0-0.3
					l2.5-2.1c0.1-0.1,0.2-0.1,0.3,0l0,0c0.1,0.1,0.1,0.2,0,0.3L65.1,79.1z"/>
				<path fill="#F8FCFF" stroke="#F4F4F4" stroke-miterlimit="10" d="M64.9,79.5c-0.2,0-0.3-0.1-0.5-0.2c-0.1-0.1-0.2-0.3-0.1-0.4
					c0-0.2,0.1-0.3,0.2-0.4l2.5-2.1c0.2-0.2,0.6-0.2,0.8,0.1c0.2,0.2,0.2,0.6-0.1,0.8l-2.5,2.1C65.2,79.5,65.1,79.5,64.9,79.5z"/>
			</g>
			<g>
				<path fill="#F8FCFF" stroke="#F4F4F4" stroke-miterlimit="10" d="M62.2,61.4c-0.1,0-0.2,0-0.3,0.1l0,0c0,0.1,0,0.2,0.1,0.3
					l3.9,1.8c0.1,0,0.2,0,0.3-0.1l0,0c0-0.1,0-0.2-0.1-0.3L62.2,61.4z"/>
				<path fill="#F8FCFF" stroke="#F4F4F4" stroke-miterlimit="10" d="M66,64.1L66,64.1l-0.2,0l-3.9-1.8c-0.3-0.1-0.4-0.5-0.3-0.8
					c0.1-0.2,0.3-0.4,0.6-0.4l0.2,0l3.9,1.8c0.3,0.1,0.4,0.5,0.3,0.8C66.5,63.9,66.3,64.1,66,64.1z"/>
			</g>
			<g>
				<path fill="#F8FCFF" stroke="#F4F4F4" stroke-miterlimit="10" d="M65.1,56.8c-0.1-0.1-0.2-0.1-0.3,0l0,0c-0.1,0.1-0.1,0.2,0,0.3
					l2.5,2.1c0.1,0.1,0.2,0.1,0.3,0l0,0c0.1-0.1,0.1-0.2,0-0.3L65.1,56.8z"/>
				<path fill="#F8FCFF" stroke="#F4F4F4" stroke-miterlimit="10" d="M67.4,59.7c-0.1,0-0.3-0.1-0.4-0.1l-2.5-2.1
					c-0.1-0.1-0.2-0.3-0.2-0.4c0-0.2,0-0.3,0.1-0.4c0.2-0.2,0.6-0.3,0.8-0.1l2.5,2.1c0.3,0.2,0.3,0.6,0.1,0.8
					C67.8,59.6,67.6,59.7,67.4,59.7z"/>
			</g>
		</g>
	</g>
</g>
<g>
	
		<text transform="matrix(0.8182 0 0 1 76.6201 76.8711)" fill="#1D2021" stroke="#1C1F20" stroke-miterlimit="10" font-family="'BrandonGrotesque-Bold'" font-size="15.1698" letter-spacing="1.2">EVERY PARTY SHOULD BE MAGIC</text>
</g>
<g>
	
		<text transform="matrix(0.8182 0 0 1 75.6201 75.7531)" fill="#F8FCFF" stroke="#F4F4F4" stroke-miterlimit="10" font-family="'BrandonGrotesque-Bold'" font-size="15.1698" letter-spacing="1.2">EVERY PARTY SHOULD BE MAGIC</text>
</g>
</svg>
