<?xml version="1.0" encoding="utf-8"?>
<!-- Generator: Adobe Illustrator 18.0.0, SVG Export Plug-In . SVG Version: 6.00 Build 0)  -->
<!DOCTYPE svg PUBLIC "-//W3C//DTD SVG 1.1//EN" "http://www.w3.org/Graphics/SVG/1.1/DTD/svg11.dtd">
<svg version="1.1" xmlns="http://www.w3.org/2000/svg" xmlns:xlink="http://www.w3.org/1999/xlink" x="0px" y="0px" width="659.9px"
	 height="147.4px" viewBox="0 0 659.9 147.4" style="enable-background:new 0 0 659.9 147.4;" xml:space="preserve">
<style type="text/css">
	.st0{fill:#FFFFFF;stroke:#DDDDDD;stroke-miterlimit:10;}
	.st1{fill:#FFFFFF;}
	.st2{stroke:#000000;stroke-miterlimit:10;}
	.st3{enable-background:new    ;}
	.st4{fill:#FFFFFF;stroke:#D8D8D8;stroke-miterlimit:10;}
</style>
<g id="Layer_2">
	<g>
		<path d="M76.7,65.7c0,0,14.6-11.9,11.7-32.9c-2.9-21-19.1-27-36.6-26.9c-17.5,0-46.9,0-46.9,0v119.7H59c0,0,30.8,0,30.7-33.5
			C89.6,92,90.7,73.6,76.7,65.7z M41.4,29.5c0,0,12.2-1.8,12.3,11.7c0.2,13.5-12.3,11.7-12.3,11.7V29.5z M41.4,99.8v-26
			c0,0,12.2-0.5,12.3,13C53.9,100.4,41.4,99.8,41.4,99.8z"/>
		<path d="M130.1,8.2c-22.3,0-30.4,9.7-30.4,9.7v23.6c0,0,10.4-7.4,20.4-4.9c10,2.6,8.7,12.9,8.7,12.9s-12.6-8.1-24.3,2.9
			c-12.9,12.3-4.7,31.2-0.5,35.6c5.1,5.3,16.5,6.8,24.9-2.9v6.4h28.4V43.2C157.3,37,158,8.2,130.1,8.2z M128.5,72.2
			c0,0-2.6,4.5-7,3.1s-5.5-7.6-3.4-11.3c2.1-3.7,7-5,10.4-1.6V72.2z"/>
		<path d="M275.1,8.2c-22.3,0-30.4,9.7-30.4,9.7v23.6c0,0,10.4-7.4,20.4-4.9c10,2.6,8.7,12.9,8.7,12.9s-12.6-8.1-24.3,2.9
			c-12.9,12.3-4.7,31.2-0.5,35.6c5.1,5.3,16.5,6.8,24.9-2.9v6.4h28.4V43.2C302.3,37,303,8.2,275.1,8.2z M273.5,72.2
			c0,0-2.6,4.5-7,3.1c-4.4-1.5-5.5-7.6-3.4-11.3c2.1-3.7,7-5,10.4-1.6V72.2z"/>
		<path d="M420.3,8.2c-22.3,0-30.4,9.7-30.4,9.7v23.6c0,0,10.4-7.4,20.4-4.9c10,2.6,8.7,12.9,8.7,12.9s-12.6-8.1-24.3,2.9
			c-12.9,12.3-4.7,31.2-0.5,35.6c5.1,5.3,16.5,6.8,24.9-2.9v6.4h28.4V43.2C447.5,37,448.2,8.2,420.3,8.2z M418.7,72.2
			c0,0-2.6,4.5-7,3.1s-5.5-7.6-3.4-11.3c2.1-3.7,7-5,10.4-1.6V72.2z"/>
		<g>
			<path d="M141.6,8.2L141.6,8.2c0.2,0,0.3,0,0.5,0H141.6z"/>
			<g>
				<path d="M198.4,16.9c0,0,0-0.1,0.1-0.1c0-0.1,0-0.1-0.1-0.2V16.9z"/>
				<path d="M231.6,16.5c-0.1-0.1-0.1-0.2-0.2-0.3v0.7C231.4,16.9,231.5,16.8,231.6,16.5z"/>
				<path d="M236.4,32.8c-0.3-4.3-1.4-10.9-4.8-16.3c-0.1,0.2-0.2,0.4-0.2,0.4v-0.7c-2.9-4.4-7.3-7.8-14.3-8
					c-13.3-0.5-18.1,7.5-18.7,8.6c0,0.1-0.1,0.1-0.1,0.1v-0.3c-1.7-3.8-4.1-6.6-7.3-8.4h-33c8.2,4.9,11.2,15.9,11.2,35v48.4h29.1
					V41.2c0,0-1-6.7,3.6-8.1c0.6-0.2,1.2-0.3,1.9-0.3c6.8,0,5.5,6.5,5.5,7.8c0,1.3,0,51.1,0,51.1h22h5.2V37.1
					C236.6,37.1,236.6,35.4,236.4,32.8z"/>
				<path d="M381.6,32.8c-0.3-4.3-1.4-10.9-4.8-16.3c-0.1,0.2-0.2,0.4-0.2,0.4v-0.7c-2.9-4.4-7.3-7.8-14.3-8
					c-13.3-0.5-18.1,7.5-18.7,8.6c0,0.1-0.1,0.1-0.1,0.1v-0.3c-1.7-3.8-4.1-6.6-7.3-8.4h-33c8.2,4.9,11.2,15.9,11.2,35v48.4h29.1
					V41.2c0,0-1-6.7,3.6-8.1c0.6-0.2,1.2-0.3,1.9-0.3c6.8,0,5.5,6.5,5.5,7.8c0,1.3,0,51.1,0,51.1h22h5.2V37.1
					C381.7,37.1,381.8,35.4,381.6,32.8z"/>
			</g>
		</g>
		<path d="M504.5,49.9c0,0,9.9-5.1,9.8-22.6c-0.1-15.6-16.3-19.1-24.6-19.1c-5.2,0-34,0-34,0v83.5h40.1c0,0,20.7-0.6,20.4-24.6
			C516.1,67.1,516.4,53.1,504.5,49.9z M481.6,73.9V55.8c0,0,8.7-0.5,8.7,9S481.6,73.9,481.6,73.9z M481.6,40.5V24.2
			c0,0,8.7-1.3,8.7,8.2S481.6,40.5,481.6,40.5z"/>
		<path d="M570.9,13.6c-17.5-16.2-43.9-3.2-48.1,26c-4,27.3,7,54,29.9,54.1c20,0,27.1-15.1,27.1-15.1l1.4-15.1c0,0-3.1,7-15.3,5.9
			c-11-1-12.6-13.3-12.6-13.3h28.8C582.1,56.1,588.4,29.8,570.9,13.6z M565.2,41.6h-13.4c0-1.5,0.1-14,7.3-14.1
			C566.3,27.5,565.2,41.6,565.2,41.6z"/>
		<g>
			<path d="M628.6,126h2.3C629.9,125.9,629,125.9,628.6,126z"/>
			<path d="M627.9,95.9V7.2H592v89.6v0v29h36.6c0.5,0,1.3-0.1,2.3,0h15.1c6.8,0,15-6.8,15-13.9V95.8L627.9,95.9z"/>
		</g>
	</g>
	<g>
		<g>
			<g>
				<path d="M562.7,128.4c0.2,0,0.4-0.2,0.4-0.4l0,0c0-0.2-0.2-0.4-0.4-0.4h-7c-0.2,0-0.4,0.2-0.4,0.4l0,0c0,0.2,0.2,0.4,0.4,0.4
					H562.7z"/>
				<path d="M562.7,129.1h-7c-0.6,0-1-0.5-1-1c0-0.6,0.5-1,1-1h7c0.6,0,1,0.5,1,1C563.7,128.6,563.3,129.1,562.7,129.1z"/>
			</g>
			<g>
				<path d="M561.1,138.9c0.2,0.1,0.4,0,0.5-0.2l0,0c0.1-0.2,0-0.4-0.2-0.5l-6.6-3.1c-0.2-0.1-0.4,0-0.5,0.2l0,0
					c-0.1,0.2,0,0.4,0.2,0.5L561.1,138.9z"/>
				<path d="M561.2,139.5L561.2,139.5l-0.4-0.1l-6.6-3.1c-0.5-0.2-0.7-0.8-0.5-1.3c0.2-0.4,0.5-0.6,0.9-0.6l0.4,0.1l6.6,3.1
					c0.5,0.2,0.7,0.8,0.5,1.3C562,139.3,561.6,139.5,561.2,139.5z"/>
			</g>
			<g>
				<path d="M556.2,146.6c0.2,0.1,0.4,0.1,0.5,0l0,0c0.1-0.2,0.1-0.4,0-0.5l-4.2-3.5c-0.2-0.1-0.4-0.1-0.5,0l0,0
					c-0.1,0.2-0.1,0.4,0,0.5L556.2,146.6z"/>
				<path d="M556.5,147.4L556.5,147.4c-0.2,0-0.5-0.1-0.7-0.2l-4.2-3.5c-0.2-0.2-0.3-0.4-0.4-0.7c0-0.3,0.1-0.5,0.2-0.7
					c0.3-0.4,1-0.5,1.4-0.1l4.2,3.5c0.2,0.2,0.3,0.4,0.4,0.7c0,0.3-0.1,0.5-0.2,0.7C557,147.3,556.8,147.4,556.5,147.4z"/>
			</g>
			<g>
				<path d="M561.1,116.9c0.2-0.1,0.4,0,0.5,0.2l0,0c0.1,0.2,0,0.4-0.2,0.5l-6.6,3.1c-0.2,0.1-0.4,0-0.5-0.2l0,0
					c-0.1-0.2,0-0.4,0.2-0.5L561.1,116.9z"/>
				<path d="M554.6,121.3c-0.4,0-0.8-0.2-0.9-0.6c-0.2-0.5,0-1.1,0.5-1.3l6.7-3.1l0.3,0c0.4,0,0.8,0.2,0.9,0.6
					c0.2,0.5,0,1.1-0.5,1.3l-6.7,3.1L554.6,121.3z"/>
			</g>
			<g>
				<path d="M556.2,109.1c0.2-0.1,0.4-0.1,0.5,0l0,0c0.1,0.2,0.1,0.4,0,0.5l-4.2,3.5c-0.2,0.1-0.4,0.1-0.5,0l0,0
					c-0.1-0.2-0.1-0.4,0-0.5L556.2,109.1z"/>
				<path d="M552.2,113.9c-0.3,0-0.6-0.1-0.8-0.4c-0.2-0.2-0.3-0.5-0.2-0.7c0-0.3,0.1-0.5,0.3-0.7l4.2-3.5c0.4-0.3,1.1-0.3,1.4,0.1
					c0.2,0.2,0.3,0.5,0.2,0.7c0,0.3-0.1,0.5-0.3,0.7l-4.2,3.5C552.7,113.8,552.5,113.9,552.2,113.9z"/>
			</g>
		</g>
		<g>
			<g>
				<path d="M107.2,128.4c-0.2,0-0.4-0.2-0.4-0.4l0,0c0-0.2,0.2-0.4,0.4-0.4h7c0.2,0,0.4,0.2,0.4,0.4l0,0c0,0.2-0.2,0.4-0.4,0.4
					H107.2z"/>
				<path d="M114.3,129.1h-7c-0.6,0-1-0.5-1-1c0-0.6,0.5-1,1-1h7c0.6,0,1,0.5,1,1C115.3,128.6,114.8,129.1,114.3,129.1z"/>
			</g>
			<g>
				<path d="M108.9,138.9c-0.2,0.1-0.4,0-0.5-0.2l0,0c-0.1-0.2,0-0.4,0.2-0.5l6.6-3.1c0.2-0.1,0.4,0,0.5,0.2l0,0
					c0.1,0.2,0,0.4-0.2,0.5L108.9,138.9z"/>
				<path d="M108.8,139.5c-0.4,0-0.8-0.2-0.9-0.6c-0.2-0.5,0-1.1,0.5-1.3l6.7-3.1l0.3,0c0.4,0,0.8,0.2,0.9,0.6
					c0.2,0.5,0,1.1-0.5,1.3l-6.7,3.1L108.8,139.5z"/>
			</g>
			<g>
				<path d="M113.7,146.6c-0.2,0.1-0.4,0.1-0.5,0l0,0c-0.1-0.2-0.1-0.4,0-0.5l4.2-3.5c0.2-0.1,0.4-0.1,0.5,0l0,0
					c0.1,0.2,0.1,0.4,0,0.5L113.7,146.6z"/>
				<path d="M113.5,147.4c-0.3,0-0.6-0.1-0.8-0.4c-0.2-0.2-0.3-0.5-0.2-0.7c0-0.3,0.1-0.5,0.3-0.7l4.2-3.5c0.4-0.3,1.1-0.3,1.4,0.1
					c0.4,0.4,0.3,1.1-0.1,1.4l-4.2,3.5C114,147.3,113.7,147.4,113.5,147.4z"/>
			</g>
			<g>
				<path d="M108.9,116.9c-0.2-0.1-0.4,0-0.5,0.2l0,0c-0.1,0.2,0,0.4,0.2,0.5l6.6,3.1c0.2,0.1,0.4,0,0.5-0.2l0,0
					c0.1-0.2,0-0.4-0.2-0.5L108.9,116.9z"/>
				<path d="M115.3,121.3L115.3,121.3l-0.4-0.1l-6.6-3.1c-0.5-0.2-0.7-0.8-0.5-1.3c0.2-0.4,0.5-0.6,0.9-0.6l0.4,0.1l6.6,3.1
					c0.5,0.2,0.7,0.8,0.5,1.3C116.1,121,115.7,121.3,115.3,121.3z"/>
			</g>
			<g>
				<path d="M113.7,109.1c-0.2-0.1-0.4-0.1-0.5,0l0,0c-0.1,0.2-0.1,0.4,0,0.5l4.2,3.5c0.2,0.1,0.4,0.1,0.5,0l0,0
					c0.1-0.2,0.1-0.4,0-0.5L113.7,109.1z"/>
				<path d="M117.7,113.9c-0.2,0-0.5-0.1-0.7-0.2l-4.2-3.5c-0.2-0.2-0.3-0.4-0.4-0.7c0-0.3,0.1-0.5,0.2-0.7c0.3-0.4,1-0.5,1.4-0.1
					l4.2,3.5c0.4,0.4,0.5,1,0.1,1.4C118.3,113.8,118,113.9,117.7,113.9z"/>
			</g>
		</g>
	</g>
	<g>
		<path class="st0" d="M72.3,60.3c0,0,14.6-11.9,11.7-32.9c-2.9-21-19.1-27-36.6-26.9s-46.9,0-46.9,0v119.7h54.1
			c0,0,30.8,0,30.7-33.5C85.3,86.6,86.3,68.2,72.3,60.3z M37.1,24.1c0,0,12.2-1.8,12.3,11.7c0.2,13.5-12.3,11.7-12.3,11.7V24.1z
			 M37.1,94.5v-26c0,0,12.2-0.5,12.3,13C49.6,95,37.1,94.5,37.1,94.5z"/>
		<path class="st0" d="M125.7,2.8c-22.3,0-30.4,9.7-30.4,9.7v23.6c0,0,10.4-7.4,20.4-4.9s8.7,12.9,8.7,12.9s-12.6-8.1-24.3,2.9
			c-12.9,12.3-4.7,31.2-0.5,35.6c5.1,5.3,16.5,6.8,24.9-2.9v6.4h28.4V37.9C152.9,31.7,153.6,2.8,125.7,2.8z M124.1,66.9
			c0,0-2.6,4.5-7,3.1c-4.4-1.5-5.5-7.6-3.4-11.3c2.1-3.7,7-5,10.4-1.6V66.9z"/>
		<path class="st0" d="M270.8,2.8c-22.3,0-30.4,9.7-30.4,9.7v23.6c0,0,10.4-7.4,20.4-4.9c10,2.6,8.7,12.9,8.7,12.9
			s-12.6-8.1-24.3,2.9c-12.9,12.3-4.7,31.2-0.5,35.6c5.1,5.3,16.5,6.8,24.9-2.9v6.4H298V37.9C298,31.7,298.7,2.8,270.8,2.8z
			 M269.1,66.9c0,0-2.6,4.5-7,3.1s-5.5-7.6-3.4-11.3c2.1-3.7,7-5,10.4-1.6V66.9z"/>
		<path class="st0" d="M415.9,2.8c-22.3,0-30.4,9.7-30.4,9.7v23.6c0,0,10.4-7.4,20.4-4.9c10,2.6,8.7,12.9,8.7,12.9
			s-12.6-8.1-24.3,2.9c-12.9,12.3-4.7,31.2-0.5,35.6c5.1,5.3,16.5,6.8,24.9-2.9v6.4h28.4V37.9C443.1,31.7,443.8,2.8,415.9,2.8z
			 M414.3,66.9c0,0-2.6,4.5-7,3.1c-4.4-1.5-5.5-7.6-3.4-11.3c2.1-3.7,7-5,10.4-1.6V66.9z"/>
		<g>
			<path class="st0" d="M137.2,2.8L137.2,2.8c0.2,0,0.3,0,0.5,0H137.2z"/>
			<g>
				<path class="st0" d="M194,11.6c0,0,0-0.1,0.1-0.1c0-0.1,0-0.1-0.1-0.2V11.6z"/>
				<path class="st0" d="M227.3,11.2c-0.1-0.1-0.1-0.2-0.2-0.3v0.7C227.1,11.6,227.1,11.4,227.3,11.2z"/>
				<path class="st0" d="M232.1,27.5c-0.3-4.3-1.4-10.9-4.8-16.3c-0.1,0.2-0.2,0.4-0.2,0.4v-0.7c-2.9-4.4-7.3-7.8-14.3-8
					c-13.3-0.5-18.1,7.5-18.7,8.6c0,0.1-0.1,0.1-0.1,0.1v-0.3c-1.7-3.8-4.1-6.6-7.3-8.4h-33c8.2,4.9,11.2,15.9,11.2,35v48.4H194
					V35.8c0,0-1-6.7,3.6-8.1c0.6-0.2,1.2-0.3,1.9-0.3c6.8,0,5.5,6.5,5.5,7.8s0,51.1,0,51.1h22h5.2V31.7
					C232.2,31.7,232.3,30,232.1,27.5z"/>
				<path class="st0" d="M377.2,27.5c-0.3-4.3-1.4-10.9-4.8-16.3c-0.1,0.2-0.2,0.4-0.2,0.4v-0.7c-2.9-4.4-7.3-7.8-14.3-8
					c-13.3-0.5-18.1,7.5-18.7,8.6c0,0.1-0.1,0.1-0.1,0.1v-0.3c-1.7-3.8-4.1-6.6-7.3-8.4h-33c8.2,4.9,11.2,15.9,11.2,35v48.4h29.1
					V35.8c0,0-1-6.7,3.6-8.1c0.6-0.2,1.2-0.3,1.9-0.3c6.8,0,5.5,6.5,5.5,7.8s0,51.1,0,51.1h22h5.2V31.7
					C377.4,31.7,377.5,30,377.2,27.5z"/>
			</g>
		</g>
		<path class="st0" d="M500.1,44.5c0,0,9.9-5.1,9.8-22.6c-0.1-15.6-16.3-19.1-24.6-19.1c-5.2,0-34,0-34,0v83.5h40.1
			c0,0,20.7-0.6,20.4-24.6C511.8,61.7,512.1,47.8,500.1,44.5z M477.3,68.5V50.5c0,0,8.7-0.5,8.7,9S477.3,68.5,477.3,68.5z
			 M477.3,35.2V18.8c0,0,8.7-1.3,8.7,8.2S477.3,35.2,477.3,35.2z"/>
		<path class="st0" d="M566.6,8.2c-17.5-16.2-43.9-3.2-48.1,26c-4,27.3,7,54,29.9,54.1c20,0,27.1-15.1,27.1-15.1l1.4-15.1
			c0,0-3.1,7-15.3,5.9c-11-1-12.6-13.3-12.6-13.3h28.8C577.7,50.8,584.1,24.4,566.6,8.2z M560.9,36.3h-13.4c0-1.5,0.1-14,7.3-14.1
			C561.9,22.1,560.9,36.3,560.9,36.3z"/>
		<g>
			<path class="st0" d="M624.2,120.6h2.3C625.5,120.5,624.7,120.6,624.2,120.6z"/>
			<path class="st0" d="M623.6,90.5V1.9h-35.9v89.6v0v29h36.6c0.5,0,1.3-0.1,2.3,0h15.1c6.8,0,15-6.8,15-13.9V90.5L623.6,90.5z"/>
		</g>
	</g>
	<g>
		<g>
			<g>
				<path class="st1" d="M562.4,127.4c0.2,0,0.4-0.2,0.4-0.4l0,0c0-0.2-0.2-0.4-0.4-0.4h-7c-0.2,0-0.4,0.2-0.4,0.4l0,0
					c0,0.2,0.2,0.4,0.4,0.4H562.4z"/>
				<path class="st1" d="M562.4,128.1h-7c-0.6,0-1-0.5-1-1c0-0.6,0.5-1,1-1h7c0.6,0,1,0.5,1,1C563.4,127.6,562.9,128.1,562.4,128.1z
					"/>
			</g>
			<g>
				<path class="st1" d="M560.7,137.9c0.2,0.1,0.4,0,0.5-0.2l0,0c0.1-0.2,0-0.4-0.2-0.5l-6.6-3.1c-0.2-0.1-0.4,0-0.5,0.2l0,0
					c-0.1,0.2,0,0.4,0.2,0.5L560.7,137.9z"/>
				<path class="st1" d="M560.9,138.5L560.9,138.5l-0.4-0.1l-6.6-3.1c-0.5-0.2-0.7-0.8-0.5-1.3c0.2-0.4,0.5-0.6,0.9-0.6l0.4,0.1
					l6.6,3.1c0.5,0.2,0.7,0.8,0.5,1.3C561.6,138.3,561.3,138.5,560.9,138.5z"/>
			</g>
			<g>
				<path class="st1" d="M555.9,145.6c0.2,0.1,0.4,0.1,0.5,0l0,0c0.1-0.2,0.1-0.4,0-0.5l-4.2-3.5c-0.2-0.1-0.4-0.1-0.5,0l0,0
					c-0.1,0.2-0.1,0.4,0,0.5L555.9,145.6z"/>
				<path class="st1" d="M556.1,146.4L556.1,146.4c-0.2,0-0.5-0.1-0.7-0.2l-4.2-3.5c-0.2-0.2-0.3-0.4-0.4-0.7c0-0.3,0.1-0.5,0.2-0.7
					c0.3-0.4,1-0.5,1.4-0.1l4.2,3.5c0.2,0.2,0.3,0.4,0.4,0.7c0,0.3-0.1,0.5-0.2,0.7C556.7,146.3,556.4,146.4,556.1,146.4z"/>
			</g>
			<g>
				<path class="st1" d="M560.7,115.9c0.2-0.1,0.4,0,0.5,0.2l0,0c0.1,0.2,0,0.4-0.2,0.5l-6.6,3.1c-0.2,0.1-0.4,0-0.5-0.2l0,0
					c-0.1-0.2,0-0.4,0.2-0.5L560.7,115.9z"/>
				<path class="st1" d="M554.3,120.3c-0.4,0-0.8-0.2-0.9-0.6c-0.2-0.5,0-1.1,0.5-1.3l6.7-3.1l0.3,0c0.4,0,0.8,0.2,0.9,0.6
					c0.2,0.5,0,1.1-0.5,1.3l-6.7,3.1L554.3,120.3z"/>
			</g>
			<g>
				<path class="st1" d="M555.9,108.1c0.2-0.1,0.4-0.1,0.5,0l0,0c0.1,0.2,0.1,0.4,0,0.5l-4.2,3.5c-0.2,0.1-0.4,0.1-0.5,0l0,0
					c-0.1-0.2-0.1-0.4,0-0.5L555.9,108.1z"/>
				<path class="st1" d="M551.9,112.9c-0.3,0-0.6-0.1-0.8-0.4c-0.2-0.2-0.3-0.5-0.2-0.7c0-0.3,0.1-0.5,0.3-0.7l4.2-3.5
					c0.4-0.3,1.1-0.3,1.4,0.1c0.2,0.2,0.3,0.5,0.2,0.7c0,0.3-0.1,0.5-0.3,0.7l-4.2,3.5C552.4,112.8,552.1,112.9,551.9,112.9z"/>
			</g>
		</g>
		<g>
			<g>
				<path class="st1" d="M106.9,127.4c-0.2,0-0.4-0.2-0.4-0.4l0,0c0-0.2,0.2-0.4,0.4-0.4h7c0.2,0,0.4,0.2,0.4,0.4l0,0
					c0,0.2-0.2,0.4-0.4,0.4H106.9z"/>
				<path class="st1" d="M113.9,128.1h-7c-0.6,0-1-0.5-1-1c0-0.6,0.5-1,1-1h7c0.6,0,1,0.5,1,1C114.9,127.6,114.5,128.1,113.9,128.1z
					"/>
			</g>
			<g>
				<path class="st1" d="M108.5,137.9c-0.2,0.1-0.4,0-0.5-0.2l0,0c-0.1-0.2,0-0.4,0.2-0.5l6.6-3.1c0.2-0.1,0.4,0,0.5,0.2l0,0
					c0.1,0.2,0,0.4-0.2,0.5L108.5,137.9z"/>
				<path class="st1" d="M108.4,138.5c-0.4,0-0.8-0.2-0.9-0.6c-0.2-0.5,0-1.1,0.5-1.3l6.7-3.1l0.3,0c0.4,0,0.8,0.2,0.9,0.6
					c0.2,0.5,0,1.1-0.5,1.3l-6.7,3.1L108.4,138.5z"/>
			</g>
			<g>
				<path class="st1" d="M113.4,145.6c-0.2,0.1-0.4,0.1-0.5,0l0,0c-0.1-0.2-0.1-0.4,0-0.5l4.2-3.5c0.2-0.1,0.4-0.1,0.5,0l0,0
					c0.1,0.2,0.1,0.4,0,0.5L113.4,145.6z"/>
				<path class="st1" d="M113.1,146.4c-0.3,0-0.6-0.1-0.8-0.4c-0.2-0.2-0.3-0.5-0.2-0.7c0-0.3,0.1-0.5,0.3-0.7l4.2-3.5
					c0.4-0.3,1.1-0.3,1.4,0.1c0.4,0.4,0.3,1.1-0.1,1.4l-4.2,3.5C113.6,146.3,113.4,146.4,113.1,146.4z"/>
			</g>
			<g>
				<path class="st1" d="M108.5,115.9c-0.2-0.1-0.4,0-0.5,0.2l0,0c-0.1,0.2,0,0.4,0.2,0.5l6.6,3.1c0.2,0.1,0.4,0,0.5-0.2l0,0
					c0.1-0.2,0-0.4-0.2-0.5L108.5,115.9z"/>
				<path class="st1" d="M115,120.3L115,120.3l-0.4-0.1l-6.6-3.1c-0.5-0.2-0.7-0.8-0.5-1.3c0.2-0.4,0.5-0.6,0.9-0.6l0.4,0.1l6.6,3.1
					c0.5,0.2,0.7,0.8,0.5,1.3C115.8,120,115.4,120.3,115,120.3z"/>
			</g>
			<g>
				<path class="st1" d="M113.4,108.1c-0.2-0.1-0.4-0.1-0.5,0l0,0c-0.1,0.2-0.1,0.4,0,0.5l4.2,3.5c0.2,0.1,0.4,0.1,0.5,0l0,0
					c0.1-0.2,0.1-0.4,0-0.5L113.4,108.1z"/>
				<path class="st1" d="M117.4,112.9c-0.2,0-0.5-0.1-0.7-0.2l-4.2-3.5c-0.2-0.2-0.3-0.4-0.4-0.7c0-0.3,0.1-0.5,0.2-0.7
					c0.3-0.4,1-0.5,1.4-0.1l4.2,3.5c0.4,0.4,0.5,1,0.1,1.4C117.9,112.8,117.7,112.9,117.4,112.9z"/>
			</g>
		</g>
	</g>
	<g>
		<g>
			<path class="st2" d="M135.2,119.2c0-0.3,0.2-0.5,0.4-0.5h9.4c0.3,0,0.4,0.3,0.4,0.5v2.3c0,0.3-0.2,0.5-0.4,0.5h-6.9v4.6h5.7
				c0.2,0,0.4,0.3,0.4,0.5v2.3c0,0.3-0.2,0.5-0.4,0.5h-5.7v5h6.9c0.3,0,0.4,0.3,0.4,0.5v2.3c0,0.3-0.2,0.5-0.4,0.5h-9.4
				c-0.3,0-0.4-0.3-0.4-0.5V119.2z"/>
			<path class="st2" d="M148.5,119.4c-0.1-0.4,0-0.7,0.4-0.7h2.4c0.2,0,0.3,0.2,0.4,0.3l4.4,12.2h0.2l4.4-12.2
				c0-0.1,0.2-0.3,0.4-0.3h2.4c0.3,0,0.5,0.4,0.4,0.7l-7.2,19c-0.1,0.2-0.2,0.3-0.4,0.3H156c-0.2,0-0.3-0.1-0.4-0.3L148.5,119.4z"/>
			<path class="st2" d="M167.7,119.2c0-0.3,0.2-0.5,0.4-0.5h9.4c0.3,0,0.4,0.3,0.4,0.5v2.3c0,0.3-0.2,0.5-0.4,0.5h-6.9v4.6h5.7
				c0.2,0,0.4,0.3,0.4,0.5v2.3c0,0.3-0.2,0.5-0.4,0.5h-5.7v5h6.9c0.3,0,0.4,0.3,0.4,0.5v2.3c0,0.3-0.2,0.5-0.4,0.5h-9.4
				c-0.3,0-0.4-0.3-0.4-0.5V119.2z"/>
			<path class="st2" d="M183.2,119.2c0-0.3,0.2-0.5,0.4-0.5h6.6c2.8,0,5,2.7,5,6.1c0,2.6-1.4,4.7-3.4,5.7l3.2,7.2
				c0.2,0.4,0,0.8-0.4,0.8h-2.4c-0.2,0-0.3-0.1-0.4-0.3l-3.1-7.5h-2.6v7.2c0,0.3-0.2,0.5-0.4,0.5h-2.1c-0.3,0-0.4-0.3-0.4-0.5V119.2
				z M190,127.7c1.2,0,2.3-1.3,2.3-2.9c0-1.5-1.1-2.7-2.3-2.7h-3.8v5.6H190z"/>
			<path class="st2" d="M203.5,129l-5.3-9.4c-0.2-0.4,0-0.8,0.4-0.8h2.4c0.2,0,0.3,0.1,0.4,0.3l3.7,6.5l3.7-6.5
				c0.1-0.1,0.2-0.3,0.4-0.3h2.4c0.4,0,0.6,0.5,0.4,0.8l-5.4,9.4v9c0,0.3-0.2,0.5-0.4,0.5h-2.1c-0.3,0-0.4-0.3-0.4-0.5V129z"/>
			<path class="st2" d="M222.6,119.2c0-0.3,0.2-0.5,0.4-0.5h5.4c2.9,0,5.2,2.8,5.2,6.3c0,3.5-2.3,6.4-5.2,6.4h-2.9v6.6
				c0,0.3-0.2,0.5-0.4,0.5h-2.1c-0.3,0-0.4-0.3-0.4-0.5V119.2z M228.3,127.9c1.3,0,2.4-1.3,2.4-2.9c0-1.6-1.1-2.7-2.4-2.7h-2.7v5.7
				H228.3z"/>
			<path class="st2" d="M235.1,137.7l7.2-19c0.1-0.2,0.2-0.3,0.4-0.3h0.2c0.2,0,0.3,0.1,0.4,0.3l7.1,19c0.1,0.4,0,0.7-0.4,0.7h-2
				c-0.3,0-0.5-0.2-0.7-0.6l-1.1-3.1h-6.9l-1.1,3.1c-0.1,0.3-0.3,0.6-0.7,0.6h-2C235.2,138.5,235,138.1,235.1,137.7z M245.1,131.7
				l-2.3-6.2h-0.1l-2.3,6.2H245.1z"/>
			<path class="st2" d="M254.4,119.2c0-0.3,0.2-0.5,0.4-0.5h6.6c2.8,0,5,2.7,5,6.1c0,2.6-1.4,4.7-3.4,5.7l3.2,7.2
				c0.2,0.4,0,0.8-0.4,0.8h-2.4c-0.2,0-0.3-0.1-0.4-0.3l-3.1-7.5h-2.6v7.2c0,0.3-0.2,0.5-0.4,0.5h-2.1c-0.3,0-0.4-0.3-0.4-0.5V119.2
				z M261.2,127.7c1.2,0,2.3-1.3,2.3-2.9c0-1.5-1.1-2.7-2.3-2.7h-3.8v5.6H261.2z"/>
			<path class="st2" d="M273.8,122.1h-3.5c-0.3,0-0.4-0.3-0.4-0.5v-2.3c0-0.3,0.2-0.5,0.4-0.5h10.1c0.3,0,0.4,0.3,0.4,0.5v2.3
				c0,0.3-0.2,0.5-0.4,0.5h-3.5v15.9c0,0.3-0.2,0.5-0.4,0.5h-2.2c-0.2,0-0.4-0.3-0.4-0.5V122.1z"/>
			<path class="st2" d="M288.9,129l-5.3-9.4c-0.2-0.4,0-0.8,0.4-0.8h2.4c0.2,0,0.3,0.1,0.4,0.3l3.7,6.5l3.7-6.5
				c0.1-0.1,0.2-0.3,0.4-0.3h2.4c0.4,0,0.6,0.5,0.4,0.8l-5.4,9.4v9c0,0.3-0.2,0.5-0.4,0.5h-2.1c-0.3,0-0.4-0.3-0.4-0.5V129z"/>
			<path class="st2" d="M307.1,135.7l0.8-1.8c0.2-0.4,0.6-0.4,0.8-0.2c0.1,0.1,2,1.8,3.5,1.8c1.2,0,2.1-1,2.1-2.2
				c0-1.4-1-2.4-2.9-3.4c-2.2-1.1-4.4-2.8-4.4-6.1c0-2.5,1.5-5.4,5.2-5.4c2.4,0,4.2,1.5,4.6,1.9c0.2,0.2,0.3,0.7,0.1,0.9l-0.9,1.6
				c-0.2,0.3-0.5,0.6-0.8,0.3c-0.2-0.1-1.9-1.6-3.2-1.6c-1.3,0-2,1.1-2,2c0,1.3,0.9,2.2,2.7,3.2c2.2,1.1,4.8,2.7,4.8,6.4
				c0,2.9-2.1,5.6-5.3,5.6c-2.9,0-4.6-1.7-5.1-2.2C307,136.3,306.9,136.2,307.1,135.7z"/>
			<path class="st2" d="M322.4,119.2c0-0.3,0.2-0.5,0.4-0.5h2.1c0.3,0,0.4,0.3,0.4,0.5v7.5h7.6v-7.5c0-0.3,0.2-0.5,0.4-0.5h2.1
				c0.2,0,0.4,0.3,0.4,0.5v18.7c0,0.3-0.2,0.5-0.4,0.5h-2.1c-0.3,0-0.4-0.3-0.4-0.5v-7.8h-7.6v7.8c0,0.3-0.2,0.5-0.4,0.5h-2.1
				c-0.2,0-0.4-0.3-0.4-0.5V119.2z"/>
			<path class="st2" d="M349.2,118.4c4.6,0,8.3,4.6,8.3,10.2c0,5.7-3.7,10.2-8.3,10.2c-4.6,0-8.3-4.5-8.3-10.2
				C340.9,123,344.5,118.4,349.2,118.4z M349.2,135.1c2.9,0,5.3-2.9,5.3-6.5c0-3.6-2.4-6.5-5.3-6.5c-2.9,0-5.3,3-5.3,6.5
				C343.9,132.2,346.2,135.1,349.2,135.1z"/>
			<path class="st2" d="M362.1,119.2c0-0.3,0.2-0.5,0.4-0.5h2.2c0.3,0,0.4,0.3,0.4,0.5v11.6c0,2.4,1.3,4.3,3.4,4.3
				c2,0,3.4-1.9,3.4-4.3v-11.6c0-0.3,0.2-0.5,0.4-0.5h2.2c0.2,0,0.4,0.3,0.4,0.5V131c0,4.3-2.8,7.8-6.5,7.8c-3.6,0-6.4-3.5-6.4-7.8
				V119.2z"/>
			<path class="st2" d="M380.8,119.2c0-0.3,0.2-0.5,0.4-0.5h2.1c0.2,0,0.4,0.3,0.4,0.5v15.9h5.9c0.3,0,0.4,0.3,0.4,0.5v2.3
				c0,0.3-0.2,0.5-0.4,0.5h-8.5c-0.3,0-0.4-0.3-0.4-0.5V119.2z"/>
			<path class="st2" d="M394.3,119.2c0-0.3,0.2-0.5,0.4-0.5h5.5c4.5,0,8.1,4.4,8.1,9.9c0,5.5-3.7,9.9-8.1,9.9h-5.5
				c-0.2,0-0.4-0.3-0.4-0.5V119.2z M399.9,135c3,0,5.2-2.8,5.2-6.5c0-3.7-2.2-6.5-5.2-6.5h-2.6V135H399.9z"/>
			<path class="st2" d="M420.1,119.2c0-0.3,0.2-0.5,0.4-0.5h5.3c2.8,0,4.9,2.3,4.9,5.2c0,2.2-1.5,3.9-2.5,4.5c1.2,0.5,3,2,3,4.6
				c0,3.2-2.2,5.5-5,5.5h-5.6c-0.3,0-0.4-0.3-0.4-0.5V119.2z M425.6,127c1.2,0,2-1.1,2-2.5s-0.8-2.4-2-2.4h-2.5v5H425.6z
				 M425.9,135.1c1.2,0,2.1-1.1,2.1-2.6c0-1.4-1.2-2.5-2.4-2.5h-2.5v5H425.9z"/>
			<path class="st2" d="M436.2,119.2c0-0.3,0.2-0.5,0.4-0.5h9.4c0.3,0,0.4,0.3,0.4,0.5v2.3c0,0.3-0.2,0.5-0.4,0.5h-6.9v4.6h5.7
				c0.2,0,0.4,0.3,0.4,0.5v2.3c0,0.3-0.2,0.5-0.4,0.5h-5.7v5h6.9c0.3,0,0.4,0.3,0.4,0.5v2.3c0,0.3-0.2,0.5-0.4,0.5h-9.4
				c-0.3,0-0.4-0.3-0.4-0.5V119.2z"/>
			<path class="st2" d="M460.3,118.8c0-0.2,0.2-0.4,0.4-0.4h0.4c0.2,0,0.3,0.1,0.4,0.3l5.1,13.4c0.1,0,0.1,0,0.1,0l5.1-13.4
				c0.1-0.2,0.2-0.3,0.4-0.3h0.4c0.3,0,0.4,0.2,0.4,0.4l2.7,19c0.1,0.4-0.1,0.6-0.4,0.6h-2.1c-0.2,0-0.4-0.2-0.4-0.4l-1.4-10.7
				c0,0-0.1,0-0.1,0l-4.1,11.1c0,0.2-0.2,0.3-0.4,0.3h-0.4c-0.2,0-0.3-0.1-0.4-0.3l-4.1-11.1c0,0,0,0-0.1,0l-1.3,10.7
				c0,0.2-0.2,0.4-0.4,0.4h-2.1c-0.3,0-0.5-0.3-0.4-0.6L460.3,118.8z"/>
			<path class="st2" d="M478.5,137.7l7.2-19c0.1-0.2,0.2-0.3,0.4-0.3h0.2c0.2,0,0.3,0.1,0.4,0.3l7.1,19c0.1,0.4,0,0.7-0.4,0.7h-2
				c-0.3,0-0.5-0.2-0.7-0.6l-1.1-3.1h-6.9l-1.1,3.1c-0.1,0.3-0.3,0.6-0.7,0.6h-2C478.5,138.5,478.3,138.1,478.5,137.7z M488.5,131.7
				l-2.3-6.2h-0.1l-2.3,6.2H488.5z"/>
			<path class="st2" d="M504.8,118.4c2.1,0,4.1,1,5.6,2.6c0.2,0.2,0.2,0.6,0,0.8l-1.4,1.8c-0.2,0.2-0.4,0.2-0.6,0
				c-1-1.1-2.2-1.6-3.5-1.6c-2.9,0-5.2,3-5.2,6.6c0,3.5,2.3,6.5,5.2,6.5c1.3,0,2.3-0.5,2.8-0.7V132h-1.9c-0.3,0-0.4-0.2-0.4-0.5
				v-2.2c0-0.3,0.2-0.5,0.4-0.5h4.4c0.2,0,0.4,0.3,0.4,0.5v7.2c0,0.2-0.1,0.4-0.2,0.5c0,0-2.4,1.8-5.7,1.8c-4.6,0-8.3-4.5-8.3-10.1
				C496.5,123,500.2,118.4,504.8,118.4z"/>
			<path class="st2" d="M515.9,119.2c0-0.3,0.2-0.5,0.4-0.5h2.1c0.2,0,0.4,0.3,0.4,0.5v18.7c0,0.3-0.2,0.5-0.4,0.5h-2.1
				c-0.2,0-0.4-0.3-0.4-0.5V119.2z"/>
			<path class="st2" d="M532.2,118.4c2.3,0,4,0.9,5.6,2.6c0.2,0.2,0.2,0.6,0,0.8l-1.4,1.8c-0.2,0.2-0.4,0.2-0.6,0
				c-1-1-2.3-1.7-3.6-1.7c-3,0-5.2,3-5.2,6.6c0,3.5,2.2,6.5,5.2,6.5c1.4,0,2.6-0.6,3.5-1.6c0.2-0.2,0.4-0.2,0.6,0l1.4,1.8
				c0.2,0.2,0.1,0.6,0,0.8c-1.6,1.9-3.6,2.7-5.6,2.7c-4.6,0-8.4-4.5-8.4-10.2C523.8,123,527.5,118.4,532.2,118.4z"/>
		</g>
		<g>
			<g>
				<g class="st3">
					<path class="st4" d="M133.2,116.2c0-0.3,0.2-0.5,0.4-0.5h9.4c0.3,0,0.4,0.3,0.4,0.5v2.3c0,0.3-0.2,0.5-0.4,0.5h-6.9v4.6h5.7
						c0.2,0,0.4,0.3,0.4,0.5v2.3c0,0.3-0.2,0.5-0.4,0.5h-5.7v5h6.9c0.3,0,0.4,0.3,0.4,0.5v2.3c0,0.3-0.2,0.5-0.4,0.5h-9.4
						c-0.3,0-0.4-0.3-0.4-0.5V116.2z"/>
					<path class="st4" d="M146.5,116.4c-0.1-0.4,0-0.7,0.4-0.7h2.4c0.2,0,0.3,0.2,0.4,0.3l4.4,12.2h0.2l4.4-12.2
						c0-0.1,0.2-0.3,0.4-0.3h2.4c0.3,0,0.5,0.4,0.4,0.7l-7.2,19c-0.1,0.2-0.2,0.3-0.4,0.3H154c-0.2,0-0.3-0.1-0.4-0.3L146.5,116.4z"
						/>
					<path class="st4" d="M165.7,116.2c0-0.3,0.2-0.5,0.4-0.5h9.4c0.3,0,0.4,0.3,0.4,0.5v2.3c0,0.3-0.2,0.5-0.4,0.5h-6.9v4.6h5.7
						c0.2,0,0.4,0.3,0.4,0.5v2.3c0,0.3-0.2,0.5-0.4,0.5h-5.7v5h6.9c0.3,0,0.4,0.3,0.4,0.5v2.3c0,0.3-0.2,0.5-0.4,0.5h-9.4
						c-0.3,0-0.4-0.3-0.4-0.5V116.2z"/>
					<path class="st4" d="M181.2,116.2c0-0.3,0.2-0.5,0.4-0.5h6.6c2.8,0,5,2.7,5,6.1c0,2.6-1.4,4.7-3.4,5.7l3.2,7.2
						c0.2,0.4,0,0.8-0.4,0.8h-2.4c-0.2,0-0.3-0.1-0.4-0.3l-3.1-7.5h-2.6v7.2c0,0.3-0.2,0.5-0.4,0.5h-2.1c-0.3,0-0.4-0.3-0.4-0.5
						V116.2z M188,124.7c1.2,0,2.3-1.3,2.3-2.9c0-1.5-1.1-2.7-2.3-2.7h-3.8v5.6H188z"/>
					<path class="st4" d="M201.5,126l-5.3-9.4c-0.2-0.4,0-0.8,0.4-0.8h2.4c0.2,0,0.3,0.1,0.4,0.3l3.7,6.5l3.7-6.5
						c0.1-0.1,0.2-0.3,0.4-0.3h2.4c0.4,0,0.6,0.5,0.4,0.8l-5.4,9.4v9c0,0.3-0.2,0.5-0.4,0.5h-2.1c-0.3,0-0.4-0.3-0.4-0.5V126z"/>
					<path class="st4" d="M220.6,116.2c0-0.3,0.2-0.5,0.4-0.5h5.4c2.9,0,5.2,2.8,5.2,6.3c0,3.5-2.3,6.4-5.2,6.4h-2.9v6.6
						c0,0.3-0.2,0.5-0.4,0.5h-2.1c-0.3,0-0.4-0.3-0.4-0.5V116.2z M226.3,124.9c1.3,0,2.4-1.3,2.4-2.9c0-1.6-1.1-2.7-2.4-2.7h-2.7
						v5.7H226.3z"/>
					<path class="st4" d="M233.1,134.7l7.2-19c0.1-0.2,0.2-0.3,0.4-0.3h0.2c0.2,0,0.3,0.1,0.4,0.3l7.1,19c0.1,0.4,0,0.7-0.4,0.7h-2
						c-0.3,0-0.5-0.2-0.7-0.6l-1.1-3.1h-6.9l-1.1,3.1c-0.1,0.3-0.3,0.6-0.7,0.6h-2C233.2,135.5,233,135.1,233.1,134.7z M243.1,128.7
						l-2.3-6.2h-0.1l-2.3,6.2H243.1z"/>
					<path class="st4" d="M252.4,116.2c0-0.3,0.2-0.5,0.4-0.5h6.6c2.8,0,5,2.7,5,6.1c0,2.6-1.4,4.7-3.4,5.7l3.2,7.2
						c0.2,0.4,0,0.8-0.4,0.8h-2.4c-0.2,0-0.3-0.1-0.4-0.3l-3.1-7.5h-2.6v7.2c0,0.3-0.2,0.5-0.4,0.5h-2.1c-0.3,0-0.4-0.3-0.4-0.5
						V116.2z M259.2,124.7c1.2,0,2.3-1.3,2.3-2.9c0-1.5-1.1-2.7-2.3-2.7h-3.8v5.6H259.2z"/>
					<path class="st4" d="M271.8,119.1h-3.5c-0.3,0-0.4-0.3-0.4-0.5v-2.3c0-0.3,0.2-0.5,0.4-0.5h10.1c0.3,0,0.4,0.3,0.4,0.5v2.3
						c0,0.3-0.2,0.5-0.4,0.5h-3.5v15.9c0,0.3-0.2,0.5-0.4,0.5h-2.2c-0.2,0-0.4-0.3-0.4-0.5V119.1z"/>
					<path class="st4" d="M286.9,126l-5.3-9.4c-0.2-0.4,0-0.8,0.4-0.8h2.4c0.2,0,0.3,0.1,0.4,0.3l3.7,6.5l3.7-6.5
						c0.1-0.1,0.2-0.3,0.4-0.3h2.4c0.4,0,0.6,0.5,0.4,0.8l-5.4,9.4v9c0,0.3-0.2,0.5-0.4,0.5h-2.1c-0.3,0-0.4-0.3-0.4-0.5V126z"/>
					<path class="st4" d="M305.1,132.7l0.8-1.8c0.2-0.4,0.6-0.4,0.8-0.2c0.1,0.1,2,1.8,3.5,1.8c1.2,0,2.1-1,2.1-2.2
						c0-1.4-1-2.4-2.9-3.4c-2.2-1.1-4.4-2.8-4.4-6.1c0-2.5,1.5-5.4,5.2-5.4c2.4,0,4.2,1.5,4.6,1.9c0.2,0.2,0.3,0.7,0.1,0.9l-0.9,1.6
						c-0.2,0.3-0.5,0.6-0.8,0.3c-0.2-0.1-1.9-1.6-3.2-1.6c-1.3,0-2,1.1-2,2c0,1.3,0.9,2.2,2.7,3.2c2.2,1.1,4.8,2.7,4.8,6.4
						c0,2.9-2.1,5.6-5.3,5.6c-2.9,0-4.6-1.7-5.1-2.2C305,133.3,304.9,133.2,305.1,132.7z"/>
					<path class="st4" d="M320.4,116.2c0-0.3,0.2-0.5,0.4-0.5h2.1c0.3,0,0.4,0.3,0.4,0.5v7.5h7.6v-7.5c0-0.3,0.2-0.5,0.4-0.5h2.1
						c0.2,0,0.4,0.3,0.4,0.5v18.7c0,0.3-0.2,0.5-0.4,0.5h-2.1c-0.3,0-0.4-0.3-0.4-0.5v-7.8h-7.6v7.8c0,0.3-0.2,0.5-0.4,0.5h-2.1
						c-0.2,0-0.4-0.3-0.4-0.5V116.2z"/>
					<path class="st4" d="M347.2,115.4c4.6,0,8.3,4.6,8.3,10.2c0,5.7-3.7,10.2-8.3,10.2c-4.6,0-8.3-4.5-8.3-10.2
						C338.9,120,342.5,115.4,347.2,115.4z M347.2,132.1c2.9,0,5.3-2.9,5.3-6.5c0-3.6-2.4-6.5-5.3-6.5c-2.9,0-5.3,3-5.3,6.5
						C341.9,129.2,344.2,132.1,347.2,132.1z"/>
					<path class="st4" d="M360.1,116.2c0-0.3,0.2-0.5,0.4-0.5h2.2c0.3,0,0.4,0.3,0.4,0.5v11.6c0,2.4,1.3,4.3,3.4,4.3
						c2,0,3.4-1.9,3.4-4.3v-11.6c0-0.3,0.2-0.5,0.4-0.5h2.2c0.2,0,0.4,0.3,0.4,0.5V128c0,4.3-2.8,7.8-6.5,7.8
						c-3.6,0-6.4-3.5-6.4-7.8V116.2z"/>
					<path class="st4" d="M378.8,116.2c0-0.3,0.2-0.5,0.4-0.5h2.1c0.2,0,0.4,0.3,0.4,0.5v15.9h5.9c0.3,0,0.4,0.3,0.4,0.5v2.3
						c0,0.3-0.2,0.5-0.4,0.5h-8.5c-0.3,0-0.4-0.3-0.4-0.5V116.2z"/>
					<path class="st4" d="M392.3,116.2c0-0.3,0.2-0.5,0.4-0.5h5.5c4.5,0,8.1,4.4,8.1,9.9c0,5.5-3.7,9.9-8.1,9.9h-5.5
						c-0.2,0-0.4-0.3-0.4-0.5V116.2z M397.9,132c3,0,5.2-2.8,5.2-6.5c0-3.7-2.2-6.5-5.2-6.5h-2.6V132H397.9z"/>
					<path class="st4" d="M418.1,116.2c0-0.3,0.2-0.5,0.4-0.5h5.3c2.8,0,4.9,2.3,4.9,5.2c0,2.2-1.5,3.9-2.5,4.5c1.2,0.5,3,2,3,4.6
						c0,3.2-2.2,5.5-5,5.5h-5.6c-0.3,0-0.4-0.3-0.4-0.5V116.2z M423.6,124c1.2,0,2-1.1,2-2.5s-0.8-2.4-2-2.4h-2.5v5H423.6z
						 M423.9,132.1c1.2,0,2.1-1.1,2.1-2.6c0-1.4-1.2-2.5-2.4-2.5h-2.5v5H423.9z"/>
					<path class="st4" d="M434.2,116.2c0-0.3,0.2-0.5,0.4-0.5h9.4c0.3,0,0.4,0.3,0.4,0.5v2.3c0,0.3-0.2,0.5-0.4,0.5h-6.9v4.6h5.7
						c0.2,0,0.4,0.3,0.4,0.5v2.3c0,0.3-0.2,0.5-0.4,0.5h-5.7v5h6.9c0.3,0,0.4,0.3,0.4,0.5v2.3c0,0.3-0.2,0.5-0.4,0.5h-9.4
						c-0.3,0-0.4-0.3-0.4-0.5V116.2z"/>
					<path class="st4" d="M458.3,115.8c0-0.2,0.2-0.4,0.4-0.4h0.4c0.2,0,0.3,0.1,0.4,0.3l5.1,13.4c0.1,0,0.1,0,0.1,0l5.1-13.4
						c0.1-0.2,0.2-0.3,0.4-0.3h0.4c0.3,0,0.4,0.2,0.4,0.4l2.7,19c0.1,0.4-0.1,0.6-0.4,0.6h-2.1c-0.2,0-0.4-0.2-0.4-0.4l-1.4-10.7
						c0,0-0.1,0-0.1,0l-4.1,11.1c0,0.2-0.2,0.3-0.4,0.3h-0.4c-0.2,0-0.3-0.1-0.4-0.3l-4.1-11.1c0,0,0,0-0.1,0l-1.3,10.7
						c0,0.2-0.2,0.4-0.4,0.4h-2.1c-0.3,0-0.5-0.3-0.4-0.6L458.3,115.8z"/>
					<path class="st4" d="M476.5,134.7l7.2-19c0.1-0.2,0.2-0.3,0.4-0.3h0.2c0.2,0,0.3,0.1,0.4,0.3l7.1,19c0.1,0.4,0,0.7-0.4,0.7h-2
						c-0.3,0-0.5-0.2-0.7-0.6l-1.1-3.1h-6.9l-1.1,3.1c-0.1,0.3-0.3,0.6-0.7,0.6h-2C476.5,135.5,476.3,135.1,476.5,134.7z
						 M486.5,128.7l-2.3-6.2h-0.1l-2.3,6.2H486.5z"/>
					<path class="st4" d="M502.8,115.4c2.1,0,4.1,1,5.6,2.6c0.2,0.2,0.2,0.6,0,0.8l-1.4,1.8c-0.2,0.2-0.4,0.2-0.6,0
						c-1-1.1-2.2-1.6-3.5-1.6c-2.9,0-5.2,3-5.2,6.6c0,3.5,2.3,6.5,5.2,6.5c1.3,0,2.3-0.5,2.8-0.7V129h-1.9c-0.3,0-0.4-0.2-0.4-0.5
						v-2.2c0-0.3,0.2-0.5,0.4-0.5h4.4c0.2,0,0.4,0.3,0.4,0.5v7.2c0,0.2-0.1,0.4-0.2,0.5c0,0-2.4,1.8-5.7,1.8
						c-4.6,0-8.3-4.5-8.3-10.1C494.5,120,498.2,115.4,502.8,115.4z"/>
					<path class="st4" d="M513.9,116.2c0-0.3,0.2-0.5,0.4-0.5h2.1c0.2,0,0.4,0.3,0.4,0.5v18.7c0,0.3-0.2,0.5-0.4,0.5h-2.1
						c-0.2,0-0.4-0.3-0.4-0.5V116.2z"/>
					<path class="st4" d="M530.2,115.4c2.3,0,4,0.9,5.6,2.6c0.2,0.2,0.2,0.6,0,0.8l-1.4,1.8c-0.2,0.2-0.4,0.2-0.6,0
						c-1-1-2.3-1.7-3.6-1.7c-3,0-5.2,3-5.2,6.6c0,3.5,2.2,6.5,5.2,6.5c1.4,0,2.6-0.6,3.5-1.6c0.2-0.2,0.4-0.2,0.6,0l1.4,1.8
						c0.2,0.2,0.1,0.6,0,0.8c-1.6,1.9-3.6,2.7-5.6,2.7c-4.6,0-8.4-4.5-8.4-10.2C521.8,120,525.5,115.4,530.2,115.4z"/>
				</g>
			</g>
		</g>
	</g>
</g>
<g id="Terracotta">
</g>
<g id="Blue">
</g>
<g id="Layer_5">
</g>
</svg>
